<svg width="18" height="16" viewBox="0 0 18 16" fill="none" xmlns="http://www.w3.org/2000/svg">
<path d="M8.85945 11.3218C8.87615 11.3432 8.89749 11.3604 8.92186 11.3723C8.94622 11.3842 8.97297 11.3903 9.00007 11.3903C9.02717 11.3903 9.05392 11.3842 9.07828 11.3723C9.10265 11.3604 9.12399 11.3432 9.1407 11.3218L11.6407 8.15888C11.7322 8.0428 11.6496 7.87093 11.5001 7.87093H9.84605V0.317358C9.84605 0.219143 9.7657 0.138786 9.66748 0.138786H8.3282C8.22998 0.138786 8.14962 0.219143 8.14962 0.317358V7.8687H6.50007C6.35052 7.8687 6.26793 8.04057 6.35945 8.15664L8.85945 11.3218ZM17.1697 10.5406H15.8304C15.7322 10.5406 15.6519 10.6209 15.6519 10.7191V14.1566H2.34828V10.7191C2.34828 10.6209 2.26793 10.5406 2.16971 10.5406H0.830427C0.732213 10.5406 0.651855 10.6209 0.651855 10.7191V15.1388C0.651855 15.5339 0.971052 15.8531 1.36614 15.8531H16.634C17.0291 15.8531 17.3483 15.5339 17.3483 15.1388V10.7191C17.3483 10.6209 17.2679 10.5406 17.1697 10.5406Z" fill="white"/>
</svg>
