<svg width="14" height="14" viewBox="0 0 14 14" fill="none" xmlns="http://www.w3.org/2000/svg">
<g clip-path="url(#clip0_7_1588)">
<path d="M7 14C6.05527 14 5.13789 13.8154 4.2752 13.4504C3.44121 13.0977 2.69336 12.5918 2.05078 11.9492C1.4082 11.3066 0.902344 10.5588 0.549609 9.7248C0.18457 8.86211 0 7.94473 0 7C0 6.72793 0.220117 6.50781 0.492188 6.50781C0.764258 6.50781 0.984375 6.72793 0.984375 7C0.984375 7.81211 1.14297 8.59961 1.45742 9.34199C1.76094 10.0584 2.19434 10.7023 2.74668 11.2547C3.29902 11.807 3.94297 12.2418 4.65937 12.5439C5.40039 12.857 6.18789 13.0156 7 13.0156C7.81211 13.0156 8.59961 12.857 9.34199 12.5426C10.0584 12.2391 10.7023 11.8057 11.2547 11.2533C11.807 10.701 12.2418 10.057 12.5439 9.34062C12.857 8.59961 13.0156 7.81211 13.0156 7C13.0156 6.18789 12.857 5.40039 12.5426 4.65801C12.2401 3.94332 11.8023 3.29384 11.2533 2.74531C10.7054 2.19559 10.0558 1.7577 9.34062 1.45605C8.59961 1.14297 7.81211 0.984375 7 0.984375C6.72793 0.984375 6.50781 0.764258 6.50781 0.492188C6.50781 0.220117 6.72793 0 7 0C7.94473 0 8.86211 0.18457 9.7248 0.549609C10.5588 0.902344 11.3066 1.4082 11.9492 2.05078C12.5918 2.69336 13.0963 3.44258 13.449 4.2752C13.8141 5.13789 13.9986 6.05527 13.9986 7C13.9986 7.94473 13.8141 8.86211 13.449 9.7248C13.0977 10.5588 12.5918 11.3066 11.9492 11.9492C11.3066 12.5918 10.5574 13.0963 9.7248 13.449C8.86211 13.8154 7.94473 14 7 14Z" fill="white"/>
</g>
<defs>
<clipPath id="clip0_7_1588">
<rect width="14" height="14" fill="white"/>
</clipPath>
</defs>
</svg>
