<svg width="19" height="19" viewBox="0 0 19 19" fill="none" xmlns="http://www.w3.org/2000/svg">
<g clip-path="url(#clip0_7_1661)">
<path d="M17.0492 14.1662H15.5585C15.4567 14.1662 15.3613 14.2107 15.2977 14.2892C15.1492 14.4694 14.9902 14.6433 14.8227 14.8087C14.1375 15.4945 13.3259 16.0411 12.4328 16.4182C11.5075 16.809 10.513 17.0095 9.50861 17.0077C8.49287 17.0077 7.50894 16.8084 6.58439 16.4182C5.69128 16.0411 4.8797 15.4945 4.19454 14.8087C3.50816 14.1252 2.96085 13.315 2.58294 12.4231C2.19064 11.4985 1.99343 10.5167 1.99343 9.501C1.99343 8.48526 2.19276 7.50346 2.58294 6.5789C2.96039 5.68616 3.50325 4.88247 4.19454 4.1933C4.88584 3.50412 5.68952 2.96127 6.58439 2.58381C7.50894 2.19363 8.49287 1.9943 9.50861 1.9943C10.5243 1.9943 11.5083 2.19151 12.4328 2.58381C13.3277 2.96127 14.1314 3.50412 14.8227 4.1933C14.9902 4.36082 15.1471 4.53471 15.2977 4.71283C15.3613 4.79129 15.4588 4.83582 15.5585 4.83582H17.0492C17.1828 4.83582 17.2655 4.68738 17.1913 4.575C15.5649 2.04732 12.7191 0.374214 9.48528 0.382696C4.40448 0.395419 0.330927 4.51986 0.381819 9.5943C0.432712 14.5882 4.4999 18.6193 9.50861 18.6193C12.7339 18.6193 15.567 16.9483 17.1913 14.427C17.2634 14.3146 17.1828 14.1662 17.0492 14.1662ZM18.9344 9.36741L15.9253 6.99241C15.813 6.90334 15.6497 6.98392 15.6497 7.126V8.73761H8.99119C8.89789 8.73761 8.82155 8.81395 8.82155 8.90725V10.0948C8.82155 10.1881 8.89789 10.2644 8.99119 10.2644H15.6497V11.876C15.6497 12.0181 15.8151 12.0987 15.9253 12.0096L18.9344 9.63459C18.9547 9.61873 18.9711 9.59845 18.9823 9.5753C18.9936 9.55216 18.9995 9.52675 18.9995 9.501C18.9995 9.47525 18.9936 9.44984 18.9823 9.4267C18.9711 9.40355 18.9547 9.38328 18.9344 9.36741V9.36741Z" fill="white"/>
</g>
<defs>
<clipPath id="clip0_7_1661">
<rect width="19" height="19" fill="white"/>
</clipPath>
</defs>
</svg>
