<svg width="19" height="19" viewBox="0 0 19 19" fill="none" xmlns="http://www.w3.org/2000/svg">
<g clip-path="url(#clip0_14_9)">
<path d="M13.9685 15.5927C15.8489 14.1222 17.0582 11.832 17.0582 9.26055C17.0582 4.82283 13.4723 1.23287 9.03458 1.22684C4.59083 1.22082 0.986816 4.81881 0.986816 9.26055C0.986816 11.7757 2.14195 14.0197 3.952 15.4922C4.02231 15.5485 4.12476 15.5364 4.18101 15.4661L4.97253 14.4516C5.02677 14.3833 5.01472 14.2849 4.94842 14.2286C4.7857 14.096 4.629 13.9534 4.47833 13.8027C3.89096 13.2174 3.42292 12.5235 3.10021 11.7597C2.76271 10.9701 2.59396 10.1284 2.59396 9.26055C2.59396 8.39269 2.76271 7.55095 3.0982 6.75943C3.42164 5.99403 3.8857 5.30698 4.47633 4.71635C5.06695 4.12573 5.754 3.66167 6.51941 3.33823C7.31293 3.00274 8.15467 2.83399 9.02253 2.83399C9.89039 2.83399 10.7321 3.00274 11.5236 3.33823C12.289 3.66167 12.9761 4.12573 13.5667 4.71635C14.1574 5.30698 14.6214 5.99403 14.9449 6.75943C15.2803 7.55095 15.4491 8.39269 15.4491 9.26055C15.4491 10.1284 15.2803 10.9701 14.9449 11.7617C14.6221 12.5255 14.1541 13.2194 13.5667 13.8047C13.3799 13.9916 13.183 14.1664 12.9781 14.3271L12.1605 13.2804C12.142 13.2565 12.1171 13.2383 12.0887 13.2279C12.0603 13.2174 12.0295 13.2153 11.9999 13.2216C11.9703 13.2279 11.9431 13.2424 11.9214 13.2634C11.8997 13.2845 11.8844 13.3113 11.8772 13.3407L11.0817 16.5992C11.0576 16.6996 11.1339 16.7981 11.2364 16.7981L14.5913 16.8141C14.7259 16.8141 14.8022 16.6594 14.7178 16.555L13.9685 15.5927Z" fill="black" fill-opacity="0.85"/>
</g>
<defs>
<clipPath id="clip0_14_9">
<rect width="18" height="18" fill="white" transform="translate(0.0224609 0.0227051)"/>
</clipPath>
</defs>
</svg>
